<?xml version="1.0" encoding="UTF-8" standalone="no"?>
<svg
   xmlns:dc="http://purl.org/dc/elements/1.1/"
   xmlns:cc="http://creativecommons.org/ns#"
   xmlns:rdf="http://www.w3.org/1999/02/22-rdf-syntax-ns#"
   xmlns:svg="http://www.w3.org/2000/svg"
   xmlns="http://www.w3.org/2000/svg"
   xmlns:sodipodi="http://sodipodi.sourceforge.net/DTD/sodipodi-0.dtd"
   xmlns:inkscape="http://www.inkscape.org/namespaces/inkscape"
   fill="#419236"
   height="48"
   version="1.1"
   viewBox="0 0 48 48"
   width="48"
   id="svg16"
   sodipodi:docname="system-file-manager-fedora.svg"
   inkscape:version="0.92.3 (2405546, 2018-03-11)">
  <metadata
     id="metadata22">
    <rdf:RDF>
      <cc:Work
         rdf:about="">
        <dc:format>image/svg+xml</dc:format>
        <dc:type
           rdf:resource="http://purl.org/dc/dcmitype/StillImage" />
      </cc:Work>
    </rdf:RDF>
  </metadata>
  <defs
     id="defs20" />
  <sodipodi:namedview
     pagecolor="#ffffff"
     bordercolor="#666666"
     borderopacity="1"
     objecttolerance="10"
     gridtolerance="10"
     guidetolerance="10"
     inkscape:pageopacity="0"
     inkscape:pageshadow="2"
     inkscape:window-width="1328"
     inkscape:window-height="737"
     id="namedview18"
     showgrid="false"
     inkscape:zoom="9.8333333"
     inkscape:cx="17.185611"
     inkscape:cy="22.839005"
     inkscape:window-x="0"
     inkscape:window-y="0"
     inkscape:window-maximized="1"
     inkscape:current-layer="svg16" />
  <path
     d="M20 5L16 9 16 13 8 13C5.79 13 4.019531 14.79 4.019531 17L4 39C4 41.21 5.79 43 8 43L40 43C42.21 43 44 41.21 44 39L44 17C44 14.79 42.21 13 40 13L32 13 32 9 28 5 20 5zM20 9L28 9 28 13 20 13 20 9z"
     fill="#294172"
     id="path2"
     style="fill:#c01616;fill-opacity:1" />
  <path
     style="fill:#c01616;stroke:#3c6eb4;stroke-width:2.59007168;fill-opacity:1"
     inkscape:connector-curvature="0"
     id="path4"
     d="m 19.413258,27.995705 c 0,0 4.147268,0 4.147268,0 0,0 0,4.339774 0,4.339774 0,2.395553 -1.857976,4.33977 -4.147268,4.33977 -2.289293,0 -4.14727,-1.944217 -4.14727,-4.33977 0,-2.395554 1.857977,-4.339774 4.14727,-4.339774 z" />
  <path
     style="fill:none;stroke:#3c6eb4;stroke-width:2.59007168"
     inkscape:connector-curvature="0"
     id="path6"
     d="m 27.687808,28.004148 c 0,0 -4.147268,0 -4.147268,0 0,0 0,-4.339775 0,-4.339775 0,-2.395553 1.857976,-4.33977 4.147268,-4.33977 2.289293,0 4.14727,1.944217 4.14727,4.33977 0,2.395555 -1.857977,4.339775 -4.14727,4.339775 z" />
  <path
     style="fill:#ffffff;stroke-width:0.08867072"
     inkscape:connector-curvature="0"
     id="path8"
     d="m 24.829232,26.67428 v 5.655128 c 0,3.129698 -2.424955,5.667267 -5.415931,5.667267 -0.453774,0 -0.776365,-0.05361 -1.196412,-0.168503 -0.61249,-0.167725 -1.113035,-0.693218 -1.113243,-1.304443 0,-0.738806 0.512494,-1.276214 1.278582,-1.276214 0.364616,0 0.496918,0.07326 1.031073,0.07326 1.576881,0 2.85596,-1.33656 2.858726,-2.986634 v -2.599303 c 0,-0.232908 -0.180872,-0.421621 -0.403822,-0.421621 l -1.877979,-3.9e-4 c -0.699706,0 -1.265035,-0.583999 -1.265035,-1.318189 -3.46e-4,-0.738754 0.571129,-1.320358 1.27839,-1.320358" />
  <path
     style="fill:#ffffff;stroke-width:0.08867072"
     inkscape:connector-curvature="0"
     id="path10"
     d="m 22.271835,29.325573 v -5.655128 c 0,-3.129698 2.424955,-5.667267 5.415931,-5.667267 0.453774,0 0.776365,0.05361 1.196412,0.168503 0.61249,0.167725 1.113034,0.693218 1.113243,1.304443 0,0.738806 -0.512494,1.276214 -1.278582,1.276214 -0.364616,0 -0.496918,-0.07326 -1.031073,-0.07326 -1.576881,0 -2.85596,1.33656 -2.858726,2.986634 v 2.599303 c 0,0.232908 0.180872,0.421621 0.403821,0.421621 l 1.87798,3.9e-4 c 0.699705,0 1.265035,0.583999 1.265035,1.318189 3.46e-4,0.738755 -0.571129,1.320358 -1.27839,1.320358" />
  <path
     style="fill:#3c6eb4;stroke-width:0.08867072"
     inkscape:connector-curvature="0"
     id="path12"
     d="m 33.848226,37.201084 c 0,0 4e-6,-0.501726 4e-6,-0.501726 l -0.219178,0.525888 c 0,0 -0.213359,-0.525888 -0.213359,-0.525888 l 4e-5,0.501726 h -0.12294 v -0.792303 h 0.128899 c 0,0 0.210981,0.506182 0.210981,0.506182 l 0.207786,-0.506182 h 0.130494 v 0.792303 z M 32.952541,36.54149 v 0.659594 H 32.824068 V 36.54149 h -0.215394 v -0.132709 h 0.559051 v 0.132709" />
</svg>
